STARTFONT 2.1
FONT -Cronyx-Helvetica-Medium-R-Normal--18-180-75-75-P-98-KOI8-C
SIZE 18 72 72
FONTBOUNDINGBOX 15 20 0 -4
STARTPROPERTIES 23
DEFAULT_CHAR 32
FONT_ASCENT 18
FONT_DESCENT 4
SPACING "P"
FONTNAME_REGISTRY ""
FOUNDRY "Cronyx"
FAMILY_NAME "Helvetica"
WEIGHT_NAME "Medium"
SLANT "R"
SETWIDTH_NAME "Normal"
ADD_STYLE_NAME ""
AVERAGE_WIDTH 98
CHARSET_REGISTRY "KOI8"
CHARSET_ENCODING "C"
PIXEL_SIZE 18
POINT_SIZE 180
RESOLUTION_X 75
RESOLUTION_Y 75
COPYRIGHT "Copyright (C) 1990, 1991 EWT Consulting, Portions Copyright (C) 1996-1997 by Andrey A. Chernov, Moscow, Russia."
_XMBDFED_INFO "Edited with xmbdfed 3.8."
_XFREE86_GLYPH_RANGES "3_10 26_27 30_255"
X_HEIGHT 10
CAP_HEIGHT 14
ENDPROPERTIES
CHARS 237
STARTCHAR space
ENCODING 32
SWIDTH 222 0
DWIDTH 4 0
BBX 0 0 0 0
BITMAP
ENDCHAR
STARTCHAR exclam
ENCODING 33
SWIDTH 277 0
DWIDTH 5 0
BBX 1 14 2 0
BITMAP
80
80
80
80
80
80
80
80
80
80
80
00
80
80
ENDCHAR
STARTCHAR quotedbl
ENCODING 34
SWIDTH 277 0
DWIDTH 5 0
BBX 3 5 1 9
BITMAP
A0
A0
A0
A0
A0
ENDCHAR
STARTCHAR numbersign
ENCODING 35
SWIDTH 611 0
DWIDTH 11 0
BBX 9 14 1 0
BITMAP
0900
0900
1200
1200
7F80
1200
2400
2400
FF00
2400
2400
4800
4800
4800
ENDCHAR
STARTCHAR dollar
ENCODING 36
SWIDTH 444 0
DWIDTH 9 0
BBX 7 16 1 -2
BITMAP
10
38
54
92
90
90
50
38
14
12
92
92
54
38
10
10
ENDCHAR
STARTCHAR percent
ENCODING 37
SWIDTH 666 0
DWIDTH 13 0
BBX 11 14 1 0
BITMAP
7040
8880
8880
8900
8900
7200
0400
0400
09C0
1220
1220
2220
2220
41C0
ENDCHAR
STARTCHAR ampersand
ENCODING 38
SWIDTH 555 0
DWIDTH 11 0
BBX 9 14 1 0
BITMAP
3800
4400
4400
4400
4400
2800
3000
5100
8900
8A00
8600
8200
8500
7980
ENDCHAR
STARTCHAR quotesingle
ENCODING 39
SWIDTH 222 0
DWIDTH 4 0
BBX 2 5 1 9
BITMAP
C0
C0
40
40
80
ENDCHAR
STARTCHAR parenleft
ENCODING 40
SWIDTH 277 0
DWIDTH 5 0
BBX 3 18 1 -4
BITMAP
20
20
40
40
40
80
80
80
80
80
80
80
80
40
40
40
20
20
ENDCHAR
STARTCHAR parenright
ENCODING 41
SWIDTH 277 0
DWIDTH 5 0
BBX 3 18 1 -4
BITMAP
80
80
40
40
40
20
20
20
20
20
20
20
20
40
40
40
80
80
ENDCHAR
STARTCHAR asterisk
ENCODING 42
SWIDTH 388 0
DWIDTH 7 0
BBX 5 7 1 7
BITMAP
20
20
A8
70
20
50
88
ENDCHAR
STARTCHAR plus
ENCODING 43
SWIDTH 500 0
DWIDTH 9 0
BBX 7 9 1 0
BITMAP
10
10
10
10
FE
10
10
10
10
ENDCHAR
STARTCHAR comma
ENCODING 44
SWIDTH 222 0
DWIDTH 4 0
BBX 2 3 1 -1
BITMAP
40
40
80
ENDCHAR
STARTCHAR hyphen
ENCODING 45
SWIDTH 277 0
DWIDTH 6 0
BBX 5 1 0 5
BITMAP
78
ENDCHAR
STARTCHAR period
ENCODING 46
SWIDTH 222 0
DWIDTH 4 0
BBX 1 2 2 0
BITMAP
80
80
ENDCHAR
STARTCHAR slash
ENCODING 47
SWIDTH 277 0
DWIDTH 6 0
BBX 5 15 0 -1
BITMAP
08
08
08
10
10
10
20
20
20
40
40
40
80
80
80
ENDCHAR
STARTCHAR zero
ENCODING 48
SWIDTH 444 0
DWIDTH 8 0
BBX 7 14 0 0
BITMAP
38
44
82
82
82
82
82
82
82
82
82
82
44
38
ENDCHAR
STARTCHAR one
ENCODING 49
SWIDTH 444 0
DWIDTH 8 0
BBX 6 14 0 0
BITMAP
04
04
0C
3C
04
04
04
04
04
04
04
04
04
04
ENDCHAR
STARTCHAR two
ENCODING 50
SWIDTH 444 0
DWIDTH 8 0
BBX 7 14 0 0
BITMAP
38
44
82
82
02
02
02
04
08
10
20
40
80
FE
ENDCHAR
STARTCHAR three
ENCODING 51
SWIDTH 444 0
DWIDTH 8 0
BBX 7 14 0 0
BITMAP
38
44
82
82
02
02
1C
02
02
02
82
82
44
38
ENDCHAR
STARTCHAR four
ENCODING 52
SWIDTH 444 0
DWIDTH 8 0
BBX 7 14 0 0
BITMAP
04
0C
14
14
24
24
44
44
84
FE
04
04
04
04
ENDCHAR
STARTCHAR five
ENCODING 53
SWIDTH 444 0
DWIDTH 8 0
BBX 7 14 0 0
BITMAP
7E
40
40
40
80
B8
C4
82
02
02
82
82
44
38
ENDCHAR
STARTCHAR six
ENCODING 54
SWIDTH 444 0
DWIDTH 8 0
BBX 7 14 0 0
BITMAP
38
44
82
82
80
B8
C4
82
82
82
82
82
44
38
ENDCHAR
STARTCHAR seven
ENCODING 55
SWIDTH 444 0
DWIDTH 8 0
BBX 7 14 0 0
BITMAP
FE
02
02
04
04
08
08
10
10
10
20
20
20
20
ENDCHAR
STARTCHAR eight
ENCODING 56
SWIDTH 444 0
DWIDTH 8 0
BBX 7 14 0 0
BITMAP
38
44
82
82
82
44
38
44
82
82
82
82
44
38
ENDCHAR
STARTCHAR nine
ENCODING 57
SWIDTH 444 0
DWIDTH 8 0
BBX 7 14 0 0
BITMAP
38
44
82
82
82
82
82
46
3A
02
82
82
44
38
ENDCHAR
STARTCHAR colon
ENCODING 58
SWIDTH 222 0
DWIDTH 4 0
BBX 1 10 2 0
BITMAP
80
80
00
00
00
00
00
00
80
80
ENDCHAR
STARTCHAR semicolon
ENCODING 59
SWIDTH 222 0
DWIDTH 4 0
BBX 2 11 1 -1
BITMAP
40
40
00
00
00
00
00
00
40
40
80
ENDCHAR
STARTCHAR less
ENCODING 60
SWIDTH 500 0
DWIDTH 9 0
BBX 7 9 1 0
BITMAP
02
0C
30
40
80
40
30
0C
02
ENDCHAR
STARTCHAR equal
ENCODING 61
SWIDTH 500 0
DWIDTH 9 0
BBX 7 4 1 3
BITMAP
FE
00
00
FE
ENDCHAR
STARTCHAR greater
ENCODING 62
SWIDTH 500 0
DWIDTH 9 0
BBX 7 9 1 0
BITMAP
80
60
18
04
02
04
18
60
80
ENDCHAR
STARTCHAR question
ENCODING 63
SWIDTH 444 0
DWIDTH 8 0
BBX 6 14 1 0
BITMAP
78
84
84
04
08
08
10
20
20
20
20
00
20
20
ENDCHAR
STARTCHAR at
ENCODING 64
SWIDTH 833 0
DWIDTH 15 0
BBX 13 16 1 -2
BITMAP
0780
1860
2010
4010
4708
8C88
8888
9088
9090
9110
9120
4EC0
4000
2020
1040
0F80
ENDCHAR
STARTCHAR A
ENCODING 65
SWIDTH 555 0
DWIDTH 11 0
BBX 10 14 0 0
BITMAP
0C00
0C00
1200
1200
1200
2100
2100
2100
7F80
4080
4080
4080
8040
8040
ENDCHAR
STARTCHAR B
ENCODING 66
SWIDTH 555 0
DWIDTH 10 0
BBX 8 14 1 0
BITMAP
FC
82
81
81
81
82
FC
82
81
81
81
81
82
FC
ENDCHAR
STARTCHAR C
ENCODING 67
SWIDTH 611 0
DWIDTH 11 0
BBX 9 14 1 0
BITMAP
1E00
2100
4080
4080
8000
8000
8000
8000
8000
8000
4080
4080
2100
1E00
ENDCHAR
STARTCHAR D
ENCODING 68
SWIDTH 611 0
DWIDTH 11 0
BBX 9 14 1 0
BITMAP
FC00
8200
8100
8100
8080
8080
8080
8080
8080
8080
8100
8100
8200
FC00
ENDCHAR
STARTCHAR E
ENCODING 69
SWIDTH 555 0
DWIDTH 10 0
BBX 8 14 1 0
BITMAP
FF
80
80
80
80
80
FE
80
80
80
80
80
80
FF
ENDCHAR
STARTCHAR F
ENCODING 70
SWIDTH 444 0
DWIDTH 9 0
BBX 7 14 1 0
BITMAP
FE
80
80
80
80
80
FC
80
80
80
80
80
80
80
ENDCHAR
STARTCHAR G
ENCODING 71
SWIDTH 611 0
DWIDTH 11 0
BBX 9 14 1 0
BITMAP
1E00
2100
4080
4080
8000
8000
8000
8780
8080
8080
4080
4180
2280
1C80
ENDCHAR
STARTCHAR H
ENCODING 72
SWIDTH 555 0
DWIDTH 10 0
BBX 8 14 1 0
BITMAP
81
81
81
81
81
81
FF
81
81
81
81
81
81
81
ENDCHAR
STARTCHAR I
ENCODING 73
SWIDTH 166 0
DWIDTH 3 0
BBX 1 14 1 0
BITMAP
80
80
80
80
80
80
80
80
80
80
80
80
80
80
ENDCHAR
STARTCHAR J
ENCODING 74
SWIDTH 444 0
DWIDTH 8 0
BBX 6 14 1 0
BITMAP
04
04
04
04
04
04
04
04
04
84
84
84
4C
78
ENDCHAR
STARTCHAR K
ENCODING 75
SWIDTH 555 0
DWIDTH 10 0
BBX 8 14 1 0
BITMAP
81
82
84
88
88
90
B0
C8
88
84
84
82
82
81
ENDCHAR
STARTCHAR L
ENCODING 76
SWIDTH 444 0
DWIDTH 9 0
BBX 7 14 1 0
BITMAP
80
80
80
80
80
80
80
80
80
80
80
80
80
FE
ENDCHAR
STARTCHAR M
ENCODING 77
SWIDTH 722 0
DWIDTH 13 0
BBX 11 14 1 0
BITMAP
8020
C060
C060
A0A0
A0A0
A0A0
9120
9120
9120
8A20
8A20
8420
8420
8420
ENDCHAR
STARTCHAR N
ENCODING 78
SWIDTH 555 0
DWIDTH 10 0
BBX 8 14 1 0
BITMAP
81
C1
C1
A1
A1
91
91
89
89
85
85
83
83
81
ENDCHAR
STARTCHAR O
ENCODING 79
SWIDTH 666 0
DWIDTH 12 0
BBX 10 14 1 0
BITMAP
1E00
2100
4080
4080
8040
8040
8040
8040
8040
8040
4080
4080
2100
1E00
ENDCHAR
STARTCHAR P
ENCODING 80
SWIDTH 555 0
DWIDTH 10 0
BBX 8 14 1 0
BITMAP
FC
82
81
81
81
81
82
FC
80
80
80
80
80
80
ENDCHAR
STARTCHAR Q
ENCODING 81
SWIDTH 666 0
DWIDTH 12 0
BBX 10 14 1 0
BITMAP
1E00
2100
4080
4080
8040
8040
8040
8040
8040
8040
4280
4180
2180
1E40
ENDCHAR
STARTCHAR R
ENCODING 82
SWIDTH 555 0
DWIDTH 10 0
BBX 8 14 1 0
BITMAP
FC
82
81
81
81
81
82
FC
82
81
81
81
81
81
ENDCHAR
STARTCHAR S
ENCODING 83
SWIDTH 555 0
DWIDTH 10 0
BBX 8 14 1 0
BITMAP
3C
42
81
81
80
80
70
0E
01
81
81
81
42
3C
ENDCHAR
STARTCHAR T
ENCODING 84
SWIDTH 500 0
DWIDTH 10 0
BBX 9 14 0 0
BITMAP
FF80
0800
0800
0800
0800
0800
0800
0800
0800
0800
0800
0800
0800
0800
ENDCHAR
STARTCHAR U
ENCODING 85
SWIDTH 611 0
DWIDTH 11 0
BBX 9 14 1 0
BITMAP
8080
8080
8080
8080
8080
8080
8080
8080
8080
8080
8080
8080
4100
3E00
ENDCHAR
STARTCHAR V
ENCODING 86
SWIDTH 555 0
DWIDTH 11 0
BBX 10 14 0 0
BITMAP
8040
8040
4080
4080
4080
4080
2100
2100
2100
1200
1200
1200
0C00
0C00
ENDCHAR
STARTCHAR W
ENCODING 87
SWIDTH 722 0
DWIDTH 14 0
BBX 13 14 0 0
BITMAP
8208
8208
8208
4510
4510
4510
4510
28A0
28A0
28A0
28A0
38E0
1040
1040
ENDCHAR
STARTCHAR X
ENCODING 88
SWIDTH 555 0
DWIDTH 10 0
BBX 8 14 1 0
BITMAP
81
81
42
42
24
24
18
18
24
24
42
42
81
81
ENDCHAR
STARTCHAR Y
ENCODING 89
SWIDTH 500 0
DWIDTH 10 0
BBX 9 14 0 0
BITMAP
8080
8080
4100
4100
2200
2200
1400
1400
0800
0800
0800
0800
0800
0800
ENDCHAR
STARTCHAR Z
ENCODING 90
SWIDTH 555 0
DWIDTH 10 0
BBX 8 14 1 0
BITMAP
FF
01
02
02
04
08
08
10
10
20
40
40
80
FF
ENDCHAR
STARTCHAR bracketleft
ENCODING 91
SWIDTH 277 0
DWIDTH 5 0
BBX 3 18 1 -4
BITMAP
E0
80
80
80
80
80
80
80
80
80
80
80
80
80
80
80
80
E0
ENDCHAR
STARTCHAR backslash
ENCODING 92
SWIDTH 277 0
DWIDTH 6 0
BBX 5 15 0 -1
BITMAP
80
80
80
40
40
40
20
20
20
10
10
10
08
08
08
ENDCHAR
STARTCHAR bracketright
ENCODING 93
SWIDTH 277 0
DWIDTH 5 0
BBX 3 18 1 -4
BITMAP
E0
20
20
20
20
20
20
20
20
20
20
20
20
20
20
20
20
E0
ENDCHAR
STARTCHAR asciicircum
ENCODING 94
SWIDTH 388 0
DWIDTH 8 0
BBX 7 4 0 10
BITMAP
10
28
44
82
ENDCHAR
STARTCHAR underscore
ENCODING 95
SWIDTH 444 0
DWIDTH 8 0
BBX 8 1 0 -2
BITMAP
FE
ENDCHAR
STARTCHAR grave
ENCODING 96
SWIDTH 388 0
DWIDTH 7 0
BBX 3 3 2 11
BITMAP
C0
40
20
ENDCHAR
STARTCHAR a
ENCODING 97
SWIDTH 444 0
DWIDTH 9 0
BBX 7 10 1 0
BITMAP
78
84
84
0C
74
84
84
84
8C
76
ENDCHAR
STARTCHAR b
ENCODING 98
SWIDTH 500 0
DWIDTH 9 0
BBX 7 14 1 0
BITMAP
80
80
80
80
B8
C4
82
82
82
82
82
82
C4
B8
ENDCHAR
STARTCHAR c
ENCODING 99
SWIDTH 500 0
DWIDTH 9 0
BBX 7 10 1 0
BITMAP
38
44
82
80
80
80
80
82
44
38
ENDCHAR
STARTCHAR d
ENCODING 100
SWIDTH 500 0
DWIDTH 9 0
BBX 7 14 1 0
BITMAP
02
02
02
02
3A
46
82
82
82
82
82
82
46
3A
ENDCHAR
STARTCHAR e
ENCODING 101
SWIDTH 500 0
DWIDTH 9 0
BBX 7 10 1 0
BITMAP
38
44
82
82
FE
80
80
82
44
38
ENDCHAR
STARTCHAR f
ENCODING 102
SWIDTH 277 0
DWIDTH 6 0
BBX 4 14 1 0
BITMAP
30
40
40
40
F0
40
40
40
40
40
40
40
40
40
ENDCHAR
STARTCHAR g
ENCODING 103
SWIDTH 500 0
DWIDTH 9 0
BBX 7 14 1 -4
BITMAP
3A
46
82
82
82
82
82
82
46
3A
02
82
44
38
ENDCHAR
STARTCHAR h
ENCODING 104
SWIDTH 444 0
DWIDTH 8 0
BBX 6 14 1 0
BITMAP
80
80
80
80
B8
C4
84
84
84
84
84
84
84
84
ENDCHAR
STARTCHAR i
ENCODING 105
SWIDTH 166 0
DWIDTH 3 0
BBX 1 14 1 0
BITMAP
80
80
00
00
80
80
80
80
80
80
80
80
80
80
ENDCHAR
STARTCHAR j
ENCODING 106
SWIDTH 277 0
DWIDTH 5 0
BBX 3 18 0 -4
BITMAP
20
20
00
00
20
20
20
20
20
20
20
20
20
20
20
20
20
C0
ENDCHAR
STARTCHAR k
ENCODING 107
SWIDTH 444 0
DWIDTH 8 0
BBX 6 13 1 0
BITMAP
80
80
80
84
88
90
90
A0
D0
88
88
84
84
ENDCHAR
STARTCHAR l
ENCODING 108
SWIDTH 166 0
DWIDTH 3 0
BBX 1 14 1 0
BITMAP
80
80
80
80
80
80
80
80
80
80
80
80
80
80
ENDCHAR
STARTCHAR m
ENCODING 109
SWIDTH 611 0
DWIDTH 11 0
BBX 9 10 1 0
BITMAP
B300
CC80
8880
8880
8880
8880
8880
8880
8880
8880
ENDCHAR
STARTCHAR n
ENCODING 110
SWIDTH 444 0
DWIDTH 8 0
BBX 6 10 1 0
BITMAP
B8
C4
84
84
84
84
84
84
84
84
ENDCHAR
STARTCHAR o
ENCODING 111
SWIDTH 500 0
DWIDTH 9 0
BBX 7 10 1 0
BITMAP
38
44
82
82
82
82
82
82
44
38
ENDCHAR
STARTCHAR p
ENCODING 112
SWIDTH 500 0
DWIDTH 9 0
BBX 7 14 1 -4
BITMAP
B8
C4
82
82
82
82
82
82
C4
B8
80
80
80
80
ENDCHAR
STARTCHAR q
ENCODING 113
SWIDTH 500 0
DWIDTH 9 0
BBX 7 14 1 -4
BITMAP
3A
46
82
82
82
82
82
82
46
3A
02
02
02
02
ENDCHAR
STARTCHAR r
ENCODING 114
SWIDTH 333 0
DWIDTH 7 0
BBX 5 10 1 0
BITMAP
B8
C0
80
80
80
80
80
80
80
80
ENDCHAR
STARTCHAR s
ENCODING 115
SWIDTH 444 0
DWIDTH 8 0
BBX 6 10 1 0
BITMAP
78
84
84
80
60
18
04
84
84
78
ENDCHAR
STARTCHAR t
ENCODING 116
SWIDTH 277 0
DWIDTH 6 0
BBX 5 13 0 0
BITMAP
40
40
40
F0
40
40
40
40
40
40
40
40
38
ENDCHAR
STARTCHAR u
ENCODING 117
SWIDTH 444 0
DWIDTH 8 0
BBX 6 10 1 0
BITMAP
84
84
84
84
84
84
84
84
8C
74
ENDCHAR
STARTCHAR v
ENCODING 118
SWIDTH 388 0
DWIDTH 8 0
BBX 7 10 0 0
BITMAP
82
82
44
44
44
28
28
28
10
10
ENDCHAR
STARTCHAR w
ENCODING 119
SWIDTH 611 0
DWIDTH 12 0
BBX 11 10 0 0
BITMAP
8020
8420
4440
4A40
4A40
2A80
2A80
2A80
1100
1100
ENDCHAR
STARTCHAR x
ENCODING 120
SWIDTH 388 0
DWIDTH 8 0
BBX 7 10 0 0
BITMAP
82
44
44
28
10
10
28
44
44
82
ENDCHAR
STARTCHAR y
ENCODING 121
SWIDTH 388 0
DWIDTH 8 0
BBX 7 14 0 -4
BITMAP
82
82
44
44
44
48
28
28
30
10
10
20
20
C0
ENDCHAR
STARTCHAR z
ENCODING 122
SWIDTH 444 0
DWIDTH 8 0
BBX 6 10 1 0
BITMAP
FC
04
08
10
10
20
40
40
80
FC
ENDCHAR
STARTCHAR braceleft
ENCODING 123
SWIDTH 277 0
DWIDTH 6 0
BBX 4 18 1 -4
BITMAP
30
40
40
40
40
40
40
40
80
40
40
40
40
40
40
40
40
30
ENDCHAR
STARTCHAR bar
ENCODING 124
SWIDTH 166 0
DWIDTH 3 0
BBX 1 18 1 -4
BITMAP
80
80
80
80
80
80
80
80
80
80
80
80
80
80
80
80
80
80
ENDCHAR
STARTCHAR braceright
ENCODING 125
SWIDTH 277 0
DWIDTH 5 0
BBX 4 18 0 -4
BITMAP
C0
20
20
20
20
20
20
20
10
20
20
20
20
20
20
20
20
C0
ENDCHAR
STARTCHAR asciitilde
ENCODING 126
SWIDTH 388 0
DWIDTH 8 0
BBX 7 3 0 11
BITMAP
62
92
8C
ENDCHAR
STARTCHAR space
ENCODING 160
SWIDTH 222 0
DWIDTH 4 0
BBX 0 0 0 0
BITMAP
ENDCHAR
STARTCHAR cent
ENCODING 162
SWIDTH 500 0
DWIDTH 9 0
BBX 7 12 1 -1
BITMAP
10
38
54
92
90
90
90
90
92
54
38
10
ENDCHAR
STARTCHAR sterling
ENCODING 163
SWIDTH 555 0
DWIDTH 10 0
BBX 9 14 1 0
BITMAP
1E00
2100
2100
2100
2100
2000
2000
7C00
2000
2000
2000
2000
7000
8F80
ENDCHAR
STARTCHAR currency
ENCODING 164
SWIDTH 388 0
DWIDTH 7 0
BBX 7 10 0 0
BITMAP
82
44
7C
82
82
82
82
7C
44
82
ENDCHAR
STARTCHAR section
ENCODING 167
SWIDTH 277 0
DWIDTH 5 0
BBX 4 13 1 0
BITMAP
60
90
80
80
60
90
90
90
60
10
10
90
60
ENDCHAR
STARTCHAR dieresis
ENCODING 168
SWIDTH 277 0
DWIDTH 5 0
BBX 3 2 1 12
BITMAP
A0
A0
ENDCHAR
STARTCHAR copyright
ENCODING 169
SWIDTH 611 0
DWIDTH 11 0
BBX 11 13 0 1
BITMAP
0E00
3180
4040
4E40
9120
9020
9020
9020
9120
4E40
4040
3180
0E00
ENDCHAR
STARTCHAR guillemotleft
ENCODING 171
SWIDTH 722 0
DWIDTH 13 0
BBX 11 9 0 0
BITMAP
0220
0CC0
3300
4400
8800
4400
3300
0CC0
0220
ENDCHAR
STARTCHAR not
ENCODING 172
SWIDTH 277 0
DWIDTH 5 0
BBX 4 2 1 4
BITMAP
F0
10
ENDCHAR
STARTCHAR registered
ENCODING 174
SWIDTH 611 0
DWIDTH 11 0
BBX 11 13 0 1
BITMAP
0E00
3180
4040
5E40
9120
9220
9E20
9120
9120
5140
4040
3180
0E00
ENDCHAR
STARTCHAR degree
ENCODING 176
SWIDTH 277 0
DWIDTH 6 0
BBX 4 5 1 9
BITMAP
60
90
90
90
60
ENDCHAR
STARTCHAR plusminus
ENCODING 177
SWIDTH 444 0
DWIDTH 8 0
BBX 8 8 0 0
BITMAP
08
08
08
7F
08
08
08
7F
ENDCHAR
STARTCHAR twosuperior
ENCODING 178
SWIDTH 277 0
DWIDTH 5 0
BBX 4 7 1 7
BITMAP
60
90
90
20
40
80
F0
ENDCHAR
STARTCHAR acute
ENCODING 180
SWIDTH 277 0
DWIDTH 5 0
BBX 4 4 1 9
BITMAP
30
60
40
80
ENDCHAR
STARTCHAR degree
ENCODING 181
SWIDTH 444 0
DWIDTH 8 0
BBX 6 14 1 -4
BITMAP
84
84
84
84
84
84
84
84
8C
F4
80
80
80
80
ENDCHAR
STARTCHAR pilcrow
ENCODING 182
SWIDTH 555 0
DWIDTH 10 0
BBX 8 14 1 0
BITMAP
3F
79
F9
F9
F9
F9
79
39
09
09
09
09
09
09
ENDCHAR
STARTCHAR periodcentered
ENCODING 183
SWIDTH 222 0
DWIDTH 4 0
BBX 1 2 2 4
BITMAP
80
80
ENDCHAR
STARTCHAR cedilla
ENCODING 184
SWIDTH 277 0
DWIDTH 5 0
BBX 4 4 1 -1
BITMAP
80
60
30
E0
ENDCHAR
STARTCHAR guillemotright
ENCODING 187
SWIDTH 722 0
DWIDTH 13 0
BBX 11 9 0 0
BITMAP
8800
6600
1980
0440
0220
0440
1980
6600
8800
ENDCHAR
STARTCHAR multi
ENCODING 215
SWIDTH 388 0
DWIDTH 7 0
BBX 7 7 0 1
BITMAP
82
44
28
10
28
44
82
ENDCHAR
STARTCHAR divide
ENCODING 247
SWIDTH 500 0
DWIDTH 9 0
BBX 7 9 1 0
BITMAP
10
10
00
00
FE
00
00
10
10
ENDCHAR
STARTCHAR ohm
ENCODING 937
SWIDTH 666 0
DWIDTH 12 0
BBX 11 14 0 0
BITMAP
1F00
2080
4040
4040
8020
8020
8020
4040
4040
2080
1B00
0A00
0A00
FBE0
ENDCHAR
STARTCHAR afii10023
ENCODING 1025
SWIDTH 555 0
DWIDTH 10 0
BBX 8 16 1 0
BITMAP
42
00
FF
80
80
80
80
80
FE
80
80
80
80
80
80
FF
ENDCHAR
STARTCHAR afii10051
ENCODING 1026
SWIDTH 388 0
DWIDTH 7 0
BBX 7 14 0 0
BITMAP
F8
20
20
20
2C
32
22
22
22
22
2A
2A
2A
24
ENDCHAR
STARTCHAR afii10052
ENCODING 1027
SWIDTH 500 0
DWIDTH 9 0
BBX 7 16 1 0
BITMAP
08
10
FE
80
80
80
80
80
80
80
80
80
80
80
80
80
ENDCHAR
STARTCHAR afii10053
ENCODING 1028
SWIDTH 611 0
DWIDTH 11 0
BBX 9 14 1 0
BITMAP
1E00
2100
4080
8000
8000
8000
FC00
8000
8000
8000
8000
4080
2100
1E00
ENDCHAR
STARTCHAR afii10054
ENCODING 1029
SWIDTH 555 0
DWIDTH 10 0
BBX 8 14 1 0
BITMAP
3C
42
81
81
80
80
70
0E
01
81
81
81
42
3C
ENDCHAR
STARTCHAR afii10055
ENCODING 1030
SWIDTH 166 0
DWIDTH 3 0
BBX 1 14 1 0
BITMAP
80
80
80
80
80
80
80
80
80
80
80
80
80
80
ENDCHAR
STARTCHAR afii10056
ENCODING 1031
SWIDTH 166 0
DWIDTH 3 0
BBX 3 16 0 0
BITMAP
A0
A0
40
40
40
40
40
40
40
40
40
40
40
40
40
40
ENDCHAR
STARTCHAR afii10057
ENCODING 1032
SWIDTH 444 0
DWIDTH 8 0
BBX 6 14 1 0
BITMAP
04
04
04
04
04
04
04
04
04
84
84
84
4C
78
ENDCHAR
STARTCHAR afii10058
ENCODING 1033
SWIDTH 722 0
DWIDTH 13 0
BBX 11 14 1 0
BITMAP
3E00
2200
2200
2200
2200
2200
23C0
2220
2220
2220
2220
2220
2220
C3C0
ENDCHAR
STARTCHAR afii10059
ENCODING 1034
SWIDTH 611 0
DWIDTH 11 0
BBX 10 14 1 0
BITMAP
8400
8400
8400
8400
8400
8400
FF80
8440
8440
8440
8440
8440
8440
8780
ENDCHAR
STARTCHAR afii10060
ENCODING 1035
SWIDTH 388 0
DWIDTH 7 0
BBX 7 14 0 0
BITMAP
FC
20
20
20
2C
32
22
22
22
22
22
22
22
22
ENDCHAR
STARTCHAR afii10061
ENCODING 1036
SWIDTH 555 0
DWIDTH 10 0
BBX 8 16 1 0
BITMAP
08
18
91
A2
84
88
88
90
B0
C8
88
84
84
82
82
81
ENDCHAR
STARTCHAR afii10062
ENCODING 1038
SWIDTH 555 0
DWIDTH 10 0
BBX 8 16 1 0
BITMAP
42
3C
81
81
42
42
22
24
14
14
08
08
08
10
20
C0
ENDCHAR
STARTCHAR afii10145
ENCODING 1039
SWIDTH 500 0
DWIDTH 9 0
BBX 8 16 1 -2
BITMAP
81
81
81
81
81
81
81
81
81
81
81
81
81
FF
18
18
ENDCHAR
STARTCHAR afii10017
ENCODING 1040
SWIDTH 555 0
DWIDTH 10 0
BBX 10 14 0 0
BITMAP
0C00
0C00
1200
1200
1200
2100
2100
2100
7F80
4080
4080
4080
8040
8040
ENDCHAR
STARTCHAR afii10018
ENCODING 1041
SWIDTH 555 0
DWIDTH 10 0
BBX 8 14 1 0
BITMAP
FE
80
80
80
80
80
FC
82
81
81
81
81
82
FC
ENDCHAR
STARTCHAR afii10019
ENCODING 1042
SWIDTH 555 0
DWIDTH 10 0
BBX 8 14 1 0
BITMAP
FC
82
81
81
81
82
FC
82
81
81
81
81
82
FC
ENDCHAR
STARTCHAR afii10020
ENCODING 1043
SWIDTH 500 0
DWIDTH 9 0
BBX 7 14 1 0
BITMAP
FE
80
80
80
80
80
80
80
80
80
80
80
80
80
ENDCHAR
STARTCHAR afii10021
ENCODING 1044
SWIDTH 611 0
DWIDTH 11 0
BBX 9 16 1 -2
BITMAP
3F00
2100
2100
2100
2100
2100
2100
2100
2100
2100
2100
2100
4100
FF80
8080
8080
ENDCHAR
STARTCHAR afii10022
ENCODING 1045
SWIDTH 555 0
DWIDTH 10 0
BBX 8 14 1 0
BITMAP
FF
80
80
80
80
80
FE
80
80
80
80
80
80
FF
ENDCHAR
STARTCHAR afii10024
ENCODING 1046
SWIDTH 833 0
DWIDTH 15 0
BBX 15 14 0 0
BITMAP
8102
4104
2108
1110
0920
0540
0380
0380
0540
0920
1110
2108
4104
8102
ENDCHAR
STARTCHAR afii10025
ENCODING 1047
SWIDTH 555 0
DWIDTH 10 0
BBX 8 14 1 0
BITMAP
3C
42
81
81
01
03
1E
03
01
01
01
81
82
7C
ENDCHAR
STARTCHAR afii10026
ENCODING 1048
SWIDTH 555 0
DWIDTH 10 0
BBX 8 14 1 0
BITMAP
81
81
83
85
85
89
89
91
91
A1
A1
C1
81
81
ENDCHAR
STARTCHAR afii10027
ENCODING 1049
SWIDTH 555 0
DWIDTH 10 0
BBX 8 16 1 0
BITMAP
24
18
81
81
83
85
85
89
89
91
91
A1
A1
C1
81
81
ENDCHAR
STARTCHAR afii10028
ENCODING 1050
SWIDTH 555 0
DWIDTH 10 0
BBX 8 14 1 0
BITMAP
81
82
84
88
88
90
B0
C8
88
84
84
82
82
81
ENDCHAR
STARTCHAR afii10029
ENCODING 1051
SWIDTH 611 0
DWIDTH 11 0
BBX 9 14 1 0
BITMAP
3F80
2080
2080
2080
2080
2080
2080
2080
2080
2080
2080
2080
2080
C080
ENDCHAR
STARTCHAR afii10030
ENCODING 1052
SWIDTH 611 0
DWIDTH 11 0
BBX 9 14 1 0
BITMAP
8080
8080
C180
A280
A280
9480
9480
8880
8880
8080
8080
8080
8080
8080
ENDCHAR
STARTCHAR afii10031
ENCODING 1053
SWIDTH 555 0
DWIDTH 10 0
BBX 8 14 1 0
BITMAP
81
81
81
81
81
81
FF
81
81
81
81
81
81
81
ENDCHAR
STARTCHAR afii10032
ENCODING 1054
SWIDTH 666 0
DWIDTH 12 0
BBX 10 14 1 0
BITMAP
1E00
2100
4080
4080
8040
8040
8040
8040
8040
8040
4080
4080
2100
1E00
ENDCHAR
STARTCHAR afii10033
ENCODING 1055
SWIDTH 500 0
DWIDTH 9 0
BBX 7 14 1 0
BITMAP
FE
82
82
82
82
82
82
82
82
82
82
82
82
82
ENDCHAR
STARTCHAR afii10034
ENCODING 1056
SWIDTH 555 0
DWIDTH 10 0
BBX 8 14 1 0
BITMAP
FC
82
81
81
81
81
82
FC
80
80
80
80
80
80
ENDCHAR
STARTCHAR afii10035
ENCODING 1057
SWIDTH 611 0
DWIDTH 11 0
BBX 9 14 1 0
BITMAP
1E00
2100
4080
4080
8000
8000
8000
8000
8000
8000
4080
4080
2100
1E00
ENDCHAR
STARTCHAR afii10036
ENCODING 1058
SWIDTH 500 0
DWIDTH 9 0
BBX 9 14 0 0
BITMAP
FF80
0800
0800
0800
0800
0800
0800
0800
0800
0800
0800
0800
0800
0800
ENDCHAR
STARTCHAR afii10037
ENCODING 1059
SWIDTH 555 0
DWIDTH 10 0
BBX 8 14 1 0
BITMAP
81
81
42
42
22
24
14
14
08
08
08
10
20
C0
ENDCHAR
STARTCHAR afii10038
ENCODING 1060
SWIDTH 722 0
DWIDTH 13 0
BBX 11 14 1 0
BITMAP
0400
0400
3F80
4440
8420
8420
8420
8420
8420
8420
4440
3F80
0400
0400
ENDCHAR
STARTCHAR afii10039
ENCODING 1061
SWIDTH 555 0
DWIDTH 10 0
BBX 8 14 1 0
BITMAP
81
81
42
42
24
24
18
18
24
24
42
42
81
81
ENDCHAR
STARTCHAR afii10040
ENCODING 1062
SWIDTH 611 0
DWIDTH 11 0
BBX 9 16 1 -2
BITMAP
8100
8100
8100
8100
8100
8100
8100
8100
8100
8100
8100
8100
8100
FF80
0080
0080
ENDCHAR
STARTCHAR afii10041
ENCODING 1063
SWIDTH 555 0
DWIDTH 10 0
BBX 8 14 1 0
BITMAP
81
81
81
81
81
81
81
41
3F
01
01
01
01
01
ENDCHAR
STARTCHAR afii10042
ENCODING 1064
SWIDTH 722 0
DWIDTH 13 0
BBX 11 14 1 0
BITMAP
8420
8420
8420
8420
8420
8420
8420
8420
8420
8420
8420
8420
8420
FFE0
ENDCHAR
STARTCHAR afii10043
ENCODING 1065
SWIDTH 722 0
DWIDTH 13 0
BBX 12 16 1 -2
BITMAP
8420
8420
8420
8420
8420
8420
8420
8420
8420
8420
8420
8420
8420
FFF0
0010
0010
ENDCHAR
STARTCHAR afii10044
ENCODING 1066
SWIDTH 666 0
DWIDTH 12 0
BBX 11 14 0 0
BITMAP
E000
2000
2000
2000
2000
3F80
2040
2020
2020
2020
2020
2020
2040
3F80
ENDCHAR
STARTCHAR afii10045
ENCODING 1067
SWIDTH 666 0
DWIDTH 12 0
BBX 10 14 1 0
BITMAP
8040
8040
8040
8040
8040
FC40
8240
8140
8140
8140
8140
8140
8240
FC40
ENDCHAR
STARTCHAR afii10046
ENCODING 1068
SWIDTH 555 0
DWIDTH 10 0
BBX 8 14 1 0
BITMAP
80
80
80
80
80
FC
82
81
81
81
81
81
82
FC
ENDCHAR
STARTCHAR afii10047
ENCODING 1069
SWIDTH 611 0
DWIDTH 11 0
BBX 9 14 1 0
BITMAP
3C00
4200
8100
0080
0080
0080
1F80
0080
0080
0080
0080
8100
4200
3C00
ENDCHAR
STARTCHAR afii10048
ENCODING 1070
SWIDTH 833 0
DWIDTH 15 0
BBX 13 14 1 0
BITMAP
83C0
8420
8810
9008
9008
9008
F008
F008
9008
9008
9008
8810
8420
83C0
ENDCHAR
STARTCHAR afii10049
ENCODING 1071
SWIDTH 555 0
DWIDTH 10 0
BBX 8 14 0 0
BITMAP
3F
41
81
81
81
81
41
3F
11
21
21
41
41
81
ENDCHAR
STARTCHAR afii10065
ENCODING 1072
SWIDTH 444 0
DWIDTH 8 0
BBX 7 10 1 0
BITMAP
78
84
84
0C
74
84
84
84
8C
76
ENDCHAR
STARTCHAR afii10066
ENCODING 1073
SWIDTH 500 0
DWIDTH 9 0
BBX 7 14 1 0
BITMAP
06
38
40
40
B8
C4
82
82
82
82
82
82
44
38
ENDCHAR
STARTCHAR afii10067
ENCODING 1074
SWIDTH 444 0
DWIDTH 8 0
BBX 6 10 1 0
BITMAP
F8
84
84
84
F8
84
84
84
84
F8
ENDCHAR
STARTCHAR afii10068
ENCODING 1075
SWIDTH 388 0
DWIDTH 7 0
BBX 5 10 1 0
BITMAP
F8
80
80
80
80
80
80
80
80
80
ENDCHAR
STARTCHAR afii10069
ENCODING 1076
SWIDTH 555 0
DWIDTH 10 0
BBX 8 12 1 -2
BITMAP
3E
22
22
22
22
22
22
22
42
FF
81
81
ENDCHAR
STARTCHAR afii10070
ENCODING 1077
SWIDTH 500 0
DWIDTH 9 0
BBX 7 10 1 0
BITMAP
38
44
82
82
FE
80
80
82
44
38
ENDCHAR
STARTCHAR afii10072
ENCODING 1078
SWIDTH 611 0
DWIDTH 11 0
BBX 11 10 0 0
BITMAP
4440
4440
2480
2480
1500
1F00
1500
2480
4440
8420
ENDCHAR
STARTCHAR afii10073
ENCODING 1079
SWIDTH 500 0
DWIDTH 9 0
BBX 7 10 1 0
BITMAP
7C
82
82
02
1C
02
02
82
82
7C
ENDCHAR
STARTCHAR afii10074
ENCODING 1080
SWIDTH 444 0
DWIDTH 8 0
BBX 6 10 1 0
BITMAP
84
84
8C
94
94
A4
A4
C4
84
84
ENDCHAR
STARTCHAR afii10075
ENCODING 1081
SWIDTH 444 0
DWIDTH 8 0
BBX 6 12 1 0
BITMAP
48
30
84
84
8C
94
94
A4
A4
C4
84
84
ENDCHAR
STARTCHAR afii10076
ENCODING 1082
SWIDTH 444 0
DWIDTH 8 0
BBX 6 10 1 0
BITMAP
84
88
90
90
A0
D0
88
88
84
84
ENDCHAR
STARTCHAR afii10077
ENCODING 1083
SWIDTH 500 0
DWIDTH 9 0
BBX 7 10 1 0
BITMAP
3E
22
22
22
22
22
22
22
22
C2
ENDCHAR
STARTCHAR afii10078
ENCODING 1084
SWIDTH 611 0
DWIDTH 11 0
BBX 9 10 1 0
BITMAP
8080
8080
C180
A280
A280
9480
9480
8880
8880
8080
ENDCHAR
STARTCHAR afii10079
ENCODING 1085
SWIDTH 444 0
DWIDTH 8 0
BBX 6 10 1 0
BITMAP
84
84
84
84
FC
84
84
84
84
84
ENDCHAR
STARTCHAR afii10080
ENCODING 1086
SWIDTH 500 0
DWIDTH 9 0
BBX 7 10 1 0
BITMAP
38
44
82
82
82
82
82
82
44
38
ENDCHAR
STARTCHAR afii10081
ENCODING 1087
SWIDTH 444 0
DWIDTH 8 0
BBX 6 10 1 0
BITMAP
FC
84
84
84
84
84
84
84
84
84
ENDCHAR
STARTCHAR afii10082
ENCODING 1088
SWIDTH 500 0
DWIDTH 9 0
BBX 7 14 1 -4
BITMAP
B8
C4
82
82
82
82
82
82
C4
B8
80
80
80
80
ENDCHAR
STARTCHAR afii10083
ENCODING 1089
SWIDTH 500 0
DWIDTH 9 0
BBX 7 10 1 0
BITMAP
38
44
82
80
80
80
80
82
44
38
ENDCHAR
STARTCHAR afii10084
ENCODING 1090
SWIDTH 500 0
DWIDTH 9 0
BBX 7 10 1 0
BITMAP
FE
10
10
10
10
10
10
10
10
10
ENDCHAR
STARTCHAR afii10085
ENCODING 1091
SWIDTH 444 0
DWIDTH 8 0
BBX 7 14 1 -4
BITMAP
82
82
44
44
44
48
28
28
30
10
10
20
20
C0
ENDCHAR
STARTCHAR afii10086
ENCODING 1092
SWIDTH 611 0
DWIDTH 11 0
BBX 9 17 1 -4
BITMAP
0800
0800
0800
3E00
4900
8880
8880
8880
8880
8880
8880
4900
3E00
0800
0800
0800
0800
ENDCHAR
STARTCHAR afii10087
ENCODING 1093
SWIDTH 388 0
DWIDTH 7 0
BBX 7 10 0 0
BITMAP
82
44
44
28
10
10
28
44
44
82
ENDCHAR
STARTCHAR afii10088
ENCODING 1094
SWIDTH 500 0
DWIDTH 9 0
BBX 7 12 1 -2
BITMAP
84
84
84
84
84
84
84
84
84
FE
02
02
ENDCHAR
STARTCHAR afii10089
ENCODING 1095
SWIDTH 444 0
DWIDTH 8 0
BBX 6 10 1 0
BITMAP
84
84
84
84
84
7C
04
04
04
04
ENDCHAR
STARTCHAR afii10090
ENCODING 1096
SWIDTH 611 0
DWIDTH 11 0
BBX 9 10 1 0
BITMAP
8880
8880
8880
8880
8880
8880
8880
8880
8880
FF80
ENDCHAR
STARTCHAR afii10091
ENCODING 1097
SWIDTH 666 0
DWIDTH 12 0
BBX 10 12 1 -2
BITMAP
8880
8880
8880
8880
8880
8880
8880
8880
8880
FFC0
0040
0040
ENDCHAR
STARTCHAR afii10092
ENCODING 1098
SWIDTH 500 0
DWIDTH 9 0
BBX 8 10 0 0
BITMAP
E0
20
20
3E
21
21
21
21
21
3E
ENDCHAR
STARTCHAR afii10093
ENCODING 1099
SWIDTH 555 0
DWIDTH 10 0
BBX 8 10 1 0
BITMAP
81
81
81
F9
85
85
85
85
85
F9
ENDCHAR
STARTCHAR afii10094
ENCODING 1100
SWIDTH 444 0
DWIDTH 8 0
BBX 6 10 1 0
BITMAP
80
80
80
F8
84
84
84
84
84
F8
ENDCHAR
STARTCHAR afii10095
ENCODING 1101
SWIDTH 500 0
DWIDTH 9 0
BBX 7 10 1 0
BITMAP
38
44
82
02
3E
02
02
82
44
38
ENDCHAR
STARTCHAR afii10096
ENCODING 1102
SWIDTH 611 0
DWIDTH 11 0
BBX 9 10 1 0
BITMAP
8E00
9100
A080
A080
E080
A080
A080
A080
9100
8E00
ENDCHAR
STARTCHAR afii10097
ENCODING 1103
SWIDTH 500 0
DWIDTH 9 0
BBX 7 10 1 0
BITMAP
7E
82
82
82
82
7E
22
22
42
82
ENDCHAR
STARTCHAR afii10071
ENCODING 1105
SWIDTH 500 0
DWIDTH 9 0
BBX 7 12 1 0
BITMAP
44
00
38
44
82
82
FE
80
80
82
44
38
ENDCHAR
STARTCHAR afii10099
ENCODING 1106
SWIDTH 388 0
DWIDTH 7 0
BBX 7 16 0 -2
BITMAP
40
F8
40
40
5C
62
42
42
42
42
42
42
42
44
04
08
ENDCHAR
STARTCHAR afii10100
ENCODING 1107
SWIDTH 388 0
DWIDTH 7 0
BBX 5 13 1 0
BITMAP
08
10
20
F8
80
80
80
80
80
80
80
80
80
ENDCHAR
STARTCHAR afii10101
ENCODING 1108
SWIDTH 500 0
DWIDTH 9 0
BBX 7 10 1 0
BITMAP
38
44
82
80
F8
80
80
82
44
38
ENDCHAR
STARTCHAR afii10102
ENCODING 1109
SWIDTH 444 0
DWIDTH 8 0
BBX 6 10 1 0
BITMAP
78
84
84
80
60
18
04
84
84
78
ENDCHAR
STARTCHAR afii10103
ENCODING 1110
SWIDTH 166 0
DWIDTH 3 0
BBX 1 14 1 0
BITMAP
80
80
00
00
80
80
80
80
80
80
80
80
80
80
ENDCHAR
STARTCHAR afii10104
ENCODING 1111
SWIDTH 166 0
DWIDTH 3 0
BBX 3 14 0 0
BITMAP
A0
A0
00
00
40
40
40
40
40
40
40
40
40
40
ENDCHAR
STARTCHAR afii10105
ENCODING 1112
SWIDTH 277 0
DWIDTH 5 0
BBX 3 18 0 -4
BITMAP
20
20
00
00
20
20
20
20
20
20
20
20
20
20
20
20
20
C0
ENDCHAR
STARTCHAR afii10106
ENCODING 1113
SWIDTH 555 0
DWIDTH 10 0
BBX 9 10 1 0
BITMAP
3C00
2400
2400
2400
2700
2480
2480
2480
2480
C700
ENDCHAR
STARTCHAR afii10107
ENCODING 1114
SWIDTH 500 0
DWIDTH 9 0
BBX 8 10 1 0
BITMAP
88
88
88
88
FE
89
89
89
89
8E
ENDCHAR
STARTCHAR afii10108
ENCODING 1115
SWIDTH 388 0
DWIDTH 7 0
BBX 7 14 0 0
BITMAP
40
F8
40
40
5C
62
42
42
42
42
42
42
42
42
ENDCHAR
STARTCHAR afii10109
ENCODING 1116
SWIDTH 444 0
DWIDTH 8 0
BBX 6 13 1 0
BITMAP
0C
18
10
A4
88
90
90
A0
D0
88
88
84
84
ENDCHAR
STARTCHAR afii10110
ENCODING 1118
SWIDTH 444 0
DWIDTH 8 0
BBX 7 16 1 -4
BITMAP
28
38
92
82
44
44
44
48
28
28
30
10
10
20
20
C0
ENDCHAR
STARTCHAR afii10193
ENCODING 1119
SWIDTH 388 0
DWIDTH 7 0
BBX 6 12 1 -2
BITMAP
84
84
84
84
84
84
84
84
84
FC
30
30
ENDCHAR
STARTCHAR afii10146
ENCODING 1122
SWIDTH 666 0
DWIDTH 12 0
BBX 11 16 0 0
BITMAP
2000
2000
FC00
2000
2000
2000
2000
3F80
2040
2020
2020
2020
2020
2020
2040
3F80
ENDCHAR
STARTCHAR afii10194
ENCODING 1123
SWIDTH 500 0
DWIDTH 9 0
BBX 8 13 0 0
BITMAP
20
20
20
FC
20
20
3E
21
21
21
21
21
3E
ENDCHAR
STARTCHAR afii10147
ENCODING 1138
SWIDTH 666 0
DWIDTH 12 0
BBX 10 14 1 0
BITMAP
1E00
2100
4080
4080
8040
8040
FFC0
8040
8040
8040
4080
4080
2100
1E00
ENDCHAR
STARTCHAR afii10195
ENCODING 1139
SWIDTH 500 0
DWIDTH 9 0
BBX 7 10 1 0
BITMAP
38
44
82
82
FE
82
82
82
44
38
ENDCHAR
STARTCHAR afii10148
ENCODING 1140
SWIDTH 666 0
DWIDTH 12 0
BBX 12 14 0 0
BITMAP
8000
8070
40B0
4080
4080
4080
2100
2100
2100
1200
1200
1200
0C00
0C00
ENDCHAR
STARTCHAR afii10196
ENCODING 1141
SWIDTH 444 0
DWIDTH 8 0
BBX 8 10 0 0
BITMAP
80
83
44
44
44
28
28
28
10
10
ENDCHAR
STARTCHAR afii10050
ENCODING 1168
SWIDTH 500 0
DWIDTH 9 0
BBX 7 15 1 0
BITMAP
02
FE
80
80
80
80
80
80
80
80
80
80
80
80
80
ENDCHAR
STARTCHAR afii10098
ENCODING 1169
SWIDTH 388 0
DWIDTH 7 0
BBX 5 11 1 0
BITMAP
08
F8
80
80
80
80
80
80
80
80
80
ENDCHAR
STARTCHAR endash
ENCODING 8211
SWIDTH 388 0
DWIDTH 7 0
BBX 6 1 1 5
BITMAP
FC
ENDCHAR
STARTCHAR emdash
ENCODING 8212
SWIDTH 555 0
DWIDTH 10 0
BBX 9 1 1 5
BITMAP
FF80
ENDCHAR
STARTCHAR quoteleft
ENCODING 8216
SWIDTH 166 0
DWIDTH 3 0
BBX 2 5 1 9
BITMAP
80
80
80
C0
C0
ENDCHAR
STARTCHAR quoteright
ENCODING 8217
SWIDTH 111 0
DWIDTH 2 0
BBX 2 5 0 9
BITMAP
C0
C0
40
40
40
ENDCHAR
STARTCHAR quotedblleft
ENCODING 8220
SWIDTH 277 0
DWIDTH 5 0
BBX 4 5 1 9
BITMAP
A0
A0
A0
F0
F0
ENDCHAR
STARTCHAR quotedblright
ENCODING 8221
SWIDTH 222 0
DWIDTH 4 0
BBX 4 5 0 9
BITMAP
F0
F0
50
50
50
ENDCHAR
STARTCHAR quotedblbase
ENCODING 8222
SWIDTH 222 0
DWIDTH 4 0
BBX 4 5 0 -2
BITMAP
F0
F0
50
50
50
ENDCHAR
STARTCHAR dagger
ENCODING 8224
SWIDTH 500 0
DWIDTH 9 0
BBX 7 12 1 0
BITMAP
10
10
10
10
FE
10
10
10
10
10
10
10
ENDCHAR
STARTCHAR ddagger
ENCODING 8225
SWIDTH 444 0
DWIDTH 8 0
BBX 7 12 1 0
BITMAP
10
10
10
FE
10
10
10
10
FE
10
10
10
ENDCHAR
STARTCHAR bullet
ENCODING 8226
SWIDTH 277 0
DWIDTH 5 0
BBX 4 5 1 3
BITMAP
60
F0
F0
F0
60
ENDCHAR
STARTCHAR ellipsis
ENCODING 8230
SWIDTH 500 0
DWIDTH 9 0
BBX 7 2 1 0
BITMAP
92
92
ENDCHAR
STARTCHAR promille
ENCODING 8240
SWIDTH 777 0
DWIDTH 14 0
BBX 13 14 1 0
BITMAP
7080
8900
8900
8A00
8A00
7400
0800
0800
1770
2888
2888
4888
4888
8770
ENDCHAR
STARTCHAR guilsinglleft
ENCODING 8249
SWIDTH 500 0
DWIDTH 9 0
BBX 7 9 1 0
BITMAP
02
0C
30
40
C0
40
30
0C
02
ENDCHAR
STARTCHAR guilsinglright
ENCODING 8250
SWIDTH 500 0
DWIDTH 9 0
BBX 7 9 1 0
BITMAP
80
60
18
04
06
04
18
60
80
ENDCHAR
STARTCHAR Euro
ENCODING 8364
SWIDTH 555 0
DWIDTH 10 0
BBX 10 14 0 0
BITMAP
0F00
1080
2040
2040
4000
FC00
4000
4000
FC00
4000
2040
2040
1080
0F00
ENDCHAR
STARTCHAR afii61352
ENCODING 8470
SWIDTH 722 0
DWIDTH 13 0
BBX 12 14 1 0
BITMAP
8160
C190
C190
A160
A100
91F0
9100
8900
8900
8500
8500
8300
8300
8100
ENDCHAR
STARTCHAR trademark
ENCODING 8482
SWIDTH 666 0
DWIDTH 12 0
BBX 11 5 1 9
BITMAP
FA20
2360
22A0
2220
2220
ENDCHAR
STARTCHAR approx
ENCODING 8776
SWIDTH 777 0
DWIDTH 14 0
BBX 7 7 0 1
BITMAP
62
92
8C
00
62
92
8C
ENDCHAR
STARTCHAR lessequal
ENCODING 8804
SWIDTH 500 0
DWIDTH 9 0
BBX 7 10 1 0
BITMAP
02
0C
30
40
80
40
30
0C
02
FE
ENDCHAR
STARTCHAR greaterequal
ENCODING 8805
SWIDTH 500 0
DWIDTH 9 0
BBX 7 10 1 0
BITMAP
80
60
18
04
02
04
18
60
80
FE
ENDCHAR
ENDFONT
